<svg xmlns="http://www.w3.org/2000/svg" xmlns:xlink="http://www.w3.org/1999/xlink" enable-background="new 0 0 500 500" version="1.1" xml:space="preserve" width="218.10928820786285" height="218" style=""><rect id="backgroundrect" width="100%" height="100%" x="0" y="0" fill="none" stroke="none" class="" style=""/><g class="currentLayer" style=""><title>Layer 1</title><g id="svg_1" class=""><path d="M41.58209147691727,217.6999993681908 c-6.064,0 -10.981,-5.077 -10.981,-11.339 V11.33899936819077 c0,-6.2620000000000005 4.916,-11.339 10.981,-11.339 s10.981,5.077 10.981,11.339 v195.023 C52.563091476917265,212.6229993681908 47.64709147691727,217.6999993681908 41.58209147691727,217.6999993681908 zM92.80209147691727,19.88099936819077 c-0.3280000000000015,0.03200000000000011 -2.936,0.3670000000000003 -10.395,3.422 c-3.236,1.326 -6.316,2.7270000000000003 -8.354,3.6820000000000004 v75.685 c0.512,-0.21100000000000024 1.029,-0.4200000000000003 1.55,-0.6280000000000027 c7.79,-3.11 13.069,-4.497 17.116,-4.497 c19.413,0 29.445,5.732 38.296,10.79 c7.551,4.315 13.517,7.723 26.448,7.73 c0.2460000000000004,-0.015000000000000074 2.927,-0.2450000000000004 11.144,-3.337 c3.327,-1.252 6.496,-2.573 8.658,-3.502 V33.25999936819076 c-0.7350000000000027,0.2820000000000003 -1.482,0.5640000000000006 -2.234,0.8410000000000006 c-10.34,3.811 -14.8,4.3 -17.529,4.3 c-18.623,0 -28.436,-5.611 -37.093,-10.562 C112.64709147691724,23.401999368190758 106.51509147691729,19.894999368190753 92.80209147691727,19.88099936819077 M92.71809147691727,8.542999368190776 c32.94,0 32.94,18.52 64.782,18.52 c6.176,0 22.023,-6.828 26.11,-8.636 c0.4260000000000003,-0.18800000000000044 0.8800000000000027,-0.2830000000000003 1.33,-0.2830000000000003 c0.7260000000000006,0 1.4420000000000002,0.2470000000000004 2.012,0.7460000000000027 c0.79,0.693000000000004 1.292,1.727 1.292,2.882 v92.782 c0,1.948 -1.428,3.553 -3.262,3.757 c-0.31400000000000133,0.035 -0.6180000000000027,0.12200000000000012 -0.908,0.251 c-3.159,1.409 -20.13,8.842 -26.574,8.842 c-31.842,0 -31.893,-18.52 -64.782,-18.52 c-5.918,0 -20.853,6.977 -24.939,8.94 c-0.453,0.21800000000000044 -0.9410000000000006,0.3260000000000015 -1.424,0.3260000000000015 c-0.811,0 -1.608,-0.3060000000000003 -2.203,-0.915 c-0.6670000000000035,-0.6850000000000036 -1.081,-1.633 -1.081,-2.6820000000000004 v-92.782 c0,-1.927 1.3960000000000001,-3.516 3.2,-3.75 c0.347000000000002,-0.04500000000000026 0.6840000000000036,-0.14 1,-0.2940000000000003 C70.42609147691726,16.19799936819078 86.51909147691725,8.542999368190776 92.71809147691727,8.542999368190776 L92.71809147691727,8.542999368190776 z" id="svg_2"/></g></g></svg>